# xmcd
#
# Track frame offsets:
#	183
#	37148
#	75113
#	111185
#	143233
#	176268
#
# Disc length: 2827 seconds
#
# Revision: 1
# Processed by: cddbd v1.5PL3 Copyright (c) Steve Scherf et al.
# Submitted via: CDex 1.50Beta5
#
DISCID=420b0906
DTITLE=TOUT PUISSANT OK JAZZ - MABY...TONTON ZALA SERIEUX
DYEAR=1900
DGENRE=Other
TTITLE0=MABY
TTITLE1=MANISA
TTITLE2=MALARIA
TTITLE3=TONTON ZALA SERIEUX
TTITLE4=MORT VIVANT
TTITLE5=OSALA ERREUR
EXTD=
EXTT0=
EXTT1=
EXTT2=
EXTT3=
EXTT4=
EXTT5=
PLAYORDER=
